<?xml version="1.0" encoding="utf-8"?>
<!-- Generator: Adobe Illustrator 23.1.1, SVG Export Plug-In . SVG Version: 6.00 Build 0)  -->
<svg version="1.1" id="Layer_1" xmlns="http://www.w3.org/2000/svg" xmlns:xlink="http://www.w3.org/1999/xlink" x="0px" y="0px"
	 viewBox="0 0 121.6 150.7" style="enable-background:new 0 0 121.6 150.7;" xml:space="preserve">
<style type="text/css">
	.st0{fill:#FFFFFF;}
	.st1{fill-rule:evenodd;clip-rule:evenodd;fill:#CB2025;}
	.st2{fill-rule:evenodd;clip-rule:evenodd;fill:#35469D;}
	.st3{fill-rule:evenodd;clip-rule:evenodd;fill:#0F9A48;}
</style>
<g>
	<g>
		<path class="st0" d="M102.2,20.5C91.2,9,76.5,2.7,60.8,2.7S30.5,9,19.5,20.5c0,0,0,0,0,0C8.5,32,2.4,47.3,2.4,63.5
			s6,31.4,17.1,42.9l39,40.7c0.6,0.6,1.4,1,2.3,1s1.7-0.4,2.3-1l39-40.7c11-11.5,17.1-26.7,17.1-42.9
			C119.3,47.3,113.2,32,102.2,20.5C102.2,20.6,102.2,20.6,102.2,20.5z"/>
		<path d="M60.8,149.5c-1.3,0-2.5-0.5-3.4-1.5l-39-40.7C7.1,95.7,0.9,80.1,0.9,63.5s6.2-32.2,17.5-43.9C29.7,7.7,44.8,1.2,60.8,1.2
			c14.8,0,28.9,5.6,39.8,15.8v-0.1l2.3,2.4c0.1,0.1,0.2,0.2,0.3,0.3l0.4,0.4c11,11.7,17.1,27.2,17,43.5c0,16.6-6.2,32.2-17.5,43.9
			l-39,40.7C63.3,149,62.1,149.5,60.8,149.5z M60.8,4.2c-15.2,0-29.5,6.2-40.3,17.4C9.8,32.8,3.9,47.6,3.9,63.5
			c0,15.8,5.9,30.7,16.6,41.9l39,40.7c0.7,0.7,1.8,0.7,2.5,0l39-40.7c10.7-11.2,16.6-26,16.6-41.9c0-15.8-5.9-30.7-16.6-41.9
			C90.4,10.4,76.1,4.2,60.8,4.2z"/>
	</g>
</g>
<g>
	<path class="st1" d="M74.8,42.5c0-5.5-6.7-10-15-10c-1.8,0-3.6,0.2-5.2,0.6l-4.9-2.8L60.8,24l31.9,18.4c2.4-1.4,4.6-2.7,6.4-3.7
		C91.1,25.9,77,17.4,60.8,17.4c-16.1,0-30.3,8.5-38.2,21.2c1.8,1.1,4,2.3,6.4,3.7l9.9-5.7l6.4,3.7c-0.2,0.7-0.4,1.4-0.4,2.2
		c0,5.5,6.7,10,15,10C68.1,52.5,74.8,48,74.8,42.5z"/>
	<path class="st2" d="M100.5,41.3L94.2,45v11.5l-7,3.9c-0.5-0.6-1.1-1.1-1.8-1.5c-4.8-2.8-12,0.8-16.1,7.9c-4.1,7.2-3.7,15.2,1.1,18
		c4.8,2.8,12-0.8,16.1-7.9c0.9-1.5,1.6-3.1,2-4.7l5.6-3.2v12.8l-31.8,18.4v7.3c24.1-0.8,43.4-20.6,43.4-45
		C105.8,54.8,103.9,47.6,100.5,41.3z"/>
	<path class="st3" d="M50.8,85.4c0.3-0.1,0.6-0.3,0.9-0.4c4.8-2.8,5.3-10.8,1.1-18c-4.1-7.1-11.4-10.7-16.1-7.9
		c-4.8,2.8-5.3,10.8-1.1,18c0.6,1.1,1.3,2,2,2.9v7.7l-10.1-5.8V44.9l-6.3-3.7c-3.4,6.3-5.3,13.5-5.3,21.2c0,24.4,19.4,44.2,43.6,45
		v-7.2l-8.6-5V85.4z"/>
</g>
</svg>
