<?xml version="1.0" encoding="utf-8"?>
<!-- Generator: Adobe Illustrator 23.1.1, SVG Export Plug-In . SVG Version: 6.00 Build 0)  -->
<svg version="1.1" id="Layer_1" xmlns="http://www.w3.org/2000/svg" xmlns:xlink="http://www.w3.org/1999/xlink" x="0px" y="0px"
	 viewBox="0 0 121.6 150.7" style="enable-background:new 0 0 121.6 150.7;" xml:space="preserve">
<style type="text/css">
	.st0{fill:#81D7BE;}
	.st1{fill:#19773F;}
	.st2{fill:#FFFFFF;}
</style>
<g>
	<g>
		<g>
			<path class="st0" d="M102.2,20.5C91.2,9,76.5,2.7,60.8,2.7S30.5,9,19.5,20.5c0,0,0,0,0,0C8.5,32,2.4,47.3,2.4,63.5
				s6,31.4,17.1,42.9l39,40.7c0.6,0.6,1.4,1,2.3,1s1.7-0.4,2.3-1l39-40.7c11-11.5,17.1-26.7,17.1-42.9
				C119.3,47.3,113.2,32,102.2,20.5C102.2,20.6,102.2,20.6,102.2,20.5z"/>
			<path class="st1" d="M60.8,149.5c-1.3,0-2.5-0.5-3.4-1.5l-39-40.7C7.1,95.7,0.9,80.1,0.9,63.5s6.2-32.2,17.5-43.9
				C29.7,7.7,44.8,1.2,60.8,1.2c14.8,0,28.9,5.6,39.8,15.8v-0.1l2.3,2.4c0.1,0.1,0.2,0.2,0.3,0.3l0.4,0.4c11,11.7,17.1,27.2,17,43.5
				c0,16.6-6.2,32.2-17.5,43.9l-39,40.7C63.3,149,62.1,149.5,60.8,149.5z M60.8,4.2c-15.2,0-29.5,6.2-40.3,17.4
				C9.8,32.8,3.9,47.6,3.9,63.5c0,15.8,5.9,30.7,16.6,41.9l39,40.7c0.7,0.7,1.8,0.7,2.5,0l39-40.7c10.7-11.2,16.6-26,16.6-41.9
				c0-15.8-5.9-30.7-16.6-41.9C90.4,10.4,76.1,4.2,60.8,4.2z"/>
		</g>
	</g>
	<g>
		<path class="st2" d="M96.1,57.9c-1,0.2-1.7,0.7-2.2,1.4c-0.7,0.8-2,1.2-3.1,0.8L87,59.1C86,58.8,85.2,58,84.9,57
			c-0.2-1-0.5-1.8-1-2.6c-0.5-1.2-0.3-2.5,0.6-3.4l5.5-5.4c1-1,2.4-1.1,3.6-0.4c0.3,0.2,0.7,0.3,1.2,0.4c1.2,0.2,2.5-0.1,3.4-0.8
			c2.1-1.9,1.8-5.3-0.7-6.7c-1.4-0.7-3.2-0.6-4.5,0.4c-1,0.7-1.4,1.7-1.5,2.8c-0.1,1.2-0.7,2.1-1.8,2.5l-7.9,3.5
			c-1.2,0.5-2.4,0.2-3.4-0.6c-0.8-0.7-1.7-1.5-2.6-2.2c-1.1-0.7-1.6-2.1-1.2-3.4l0.6-2.1c0.1,0,0.3,0.1,0.4,0.1
			c2.5,0.4,4.9-1.5,4.8-4.1c0-1.6-1.1-3-2.5-3.6c-2.4-1-5.1,0.5-5.5,3.1c-0.2,1,0,1.8,0.4,2.5c0.5,1.1,0.3,2.3-0.3,3.2
			c-0.7,1-2.1,1.5-3.3,1.1c-1.1-0.3-2-0.5-3.1-0.7c-1.2-0.2-2.1-1.1-2.4-2.1l-3-9.7c0.1,0,0.3-0.1,0.4-0.1c2.3-1.1,3.2-3.9,1.7-6.1
			c-1-1.3-2.5-1.9-4.1-1.6c-2.6,0.5-3.9,3.3-3,5.6c0.4,0.8,1.1,1.5,1.8,1.9c1.1,0.5,1.6,1.7,1.5,2.9l-0.5,7c-0.1,1.3-1,2.4-2.2,2.8
			c-2,0.5-3.8,1.3-5.6,2.2c-1.3,0.6-2.8,0.4-3.7-0.6l-1.7-1.9c0.1-0.1,0.2-0.2,0.3-0.3c1.7-1.9,1.2-5-1.2-6.3
			c-1.4-0.7-3.1-0.6-4.3,0.3c-2.1,1.6-2.1,4.7-0.2,6.4c0.7,0.6,1.6,1,2.4,1c1.2,0,2.1,0.8,2.5,1.9l0.4,1.1c0.4,1.1,0.2,2.3-0.6,3.2
			c-1.1,1.2-2,2.4-2.8,3.7c-0.6,1.1-1.8,1.6-3,1.5l-10-1c0-0.2,0-0.3,0-0.5c-0.1-2.5-2.4-4.5-5-3.8c-1.5,0.3-2.8,1.6-3.1,3.2
			c-0.5,2.6,1.6,4.9,4.1,4.9c1,0,1.8-0.3,2.4-1c0.8-0.7,2.2-0.7,3.2-0.3l6.1,3.1c1.2,0.5,1.8,1.8,1.7,3.1c-0.1,1.1-0.2,2-0.2,3.1
			c0,1.1,0.1,2.1,0.2,3.1c0.1,1.2-0.3,2.3-1.3,3l-7.1,5c-0.1-0.1-0.2-0.3-0.3-0.4c-1.7-1.9-4.8-1.8-6.4,0.4c-1,1.3-1,3-0.2,4.3
			c1.4,2.3,4.3,2.8,6.3,1.1c0.7-0.6,1.2-1.5,1.3-2.3c0.2-1.2,1.2-2,2.2-2.3l5-1.3c1.3-0.3,2.8,0.2,3.4,1.4c0.6,1.2,1.5,2.2,2.3,3.3
			c0.8,1,0.8,2.3,0.2,3.5l-1.5,2.5c-0.1-0.1-0.3-0.2-0.4-0.2c-2.3-1-5.1,0.3-5.6,3c-0.3,1.6,0.3,3.2,1.6,4c2.2,1.6,5.1,0.6,6.1-1.7
			c0.3-0.8,0.4-1.8,0.2-2.6c-0.3-1.2,0.2-2.3,1.1-3.1l0.3-0.3c1.1-0.8,2.4-1,3.6-0.2c1.2,0.7,2.4,1.4,3.7,1.9c1.3,0.5,2,1.8,1.9,3.2
			l-1.1,8.9c-0.2,0-0.3,0-0.5,0c-2.5,0-4.6,2.3-4,5c0.3,1.5,1.6,2.8,3.1,3.1c2.6,0.5,5-1.5,5-3.9c0-1-0.3-1.8-0.8-2.4
			c-0.7-1-0.7-2.2-0.2-3.2l4.7-8.8c0.3,0,0.6,0,0.8,0c2,0,4-0.2,5.8-0.7c1.2-0.3,2.4,0.1,3.3,1.1l3.2,4.1c-0.1,0.1-0.2,0.2-0.4,0.3
			c-1.8,1.8-1.6,4.9,0.6,6.4c1.3,0.8,3.1,0.8,4.3,0c2.2-1.5,2.5-4.5,0.7-6.3c-0.6-0.6-1.5-1.1-2.3-1.2c-1.2-0.1-2.1-1.1-2.4-2.1
			L74,86.6c-0.4-1.3,0.1-2.6,1.2-3.4c1.5-1,2.8-2.1,3.9-3.4c0.8-1,2.3-1.2,3.5-0.7l9,3.8c-0.1,0.1-0.1,0.3-0.2,0.4
			c-0.7,2.4,1,5,3.7,5.2c1.6,0.1,3.1-0.7,3.8-2.1c1.3-2.3,0-5.2-2.4-5.8c-0.8-0.2-1.8-0.2-2.6,0.1c-1.1,0.4-2.3,0.1-3.2-0.6
			l-5.7-5.4c-0.8-0.8-1.2-2.1-0.7-3.3c0.8-2.4,1.3-5,1.3-7.7c0-0.2,0-0.4,0-0.6l7.2-0.7c0,0.2,0,0.3,0.1,0.5
			c0.5,2.4,3.3,3.9,5.7,2.8c1.4-0.6,2.3-2.1,2.3-3.7C101,59.2,98.6,57.3,96.1,57.9z M47.4,68.4c-2,0-2.5-2.9-2.5-5.5
			s1.7-4.8,3.7-4.8c3.7,0,4.2,3,4.2,5.6C52.8,66.4,49.4,68.4,47.4,68.4z M62.5,80.8c-2.8,0-5.8-2-5.8-4.5s3.3-3.6,6-3.6
			c2.8,0,4.8,1.1,4.8,3.6C67.5,78.8,65.3,80.8,62.5,80.8z M62,59.1c-3.1,0-6.8-2.6-6.8-6s3.8-6,6.8-6c3.1,0,5.5,1.4,5.5,4.8
			S65.1,59.1,62,59.1z M74.2,69.3c-3,0-5.4-2.8-5.4-4.9s2.4-2.8,5.4-2.8s5.4,1.7,5.4,3.8S77.2,69.3,74.2,69.3z"/>
	</g>
</g>
</svg>
