<?xml version="1.0" encoding="UTF-8" standalone="no"?>
<svg
   xmlns:dc="http://purl.org/dc/elements/1.1/"
   xmlns:cc="http://creativecommons.org/ns#"
   xmlns:rdf="http://www.w3.org/1999/02/22-rdf-syntax-ns#"
   xmlns:svg="http://www.w3.org/2000/svg"
   xmlns="http://www.w3.org/2000/svg"
   xmlns:sodipodi="http://sodipodi.sourceforge.net/DTD/sodipodi-0.dtd"
   xmlns:inkscape="http://www.inkscape.org/namespaces/inkscape"
   width="518.168"
   height="712.05"
   id="svg2"
   sodipodi:version="0.32"
   inkscape:version="0.91 r13725"
   sodipodi:docname="fabicon.svg"
   inkscape:output_extension="org.inkscape.output.svg.inkscape"
   version="1.1">
  <metadata
     id="metadata53">
    <rdf:RDF>
      <cc:Work
         rdf:about="">
        <dc:format>image/svg+xml</dc:format>
        <dc:type
           rdf:resource="http://purl.org/dc/dcmitype/StillImage" />
        <dc:title></dc:title>
      </cc:Work>
    </rdf:RDF>
  </metadata>
  <sodipodi:namedview
     inkscape:window-height="1259"
     inkscape:window-width="2109"
     inkscape:pageshadow="2"
     inkscape:pageopacity="0.0"
     guidetolerance="10.0"
     gridtolerance="10.0"
     objecttolerance="10.0"
     borderopacity="1.0"
     bordercolor="#666666"
     pagecolor="#ffffff"
     id="base"
     showgrid="false"
     inkscape:zoom="0.45745824"
     inkscape:cx="-344.59879"
     inkscape:cy="-8.6188353"
     inkscape:window-x="1387"
     inkscape:window-y="50"
     inkscape:current-layer="svg2"
     inkscape:window-maximized="0" />
  <defs
     id="defs4">
    <inkscape:perspective
       sodipodi:type="inkscape:persp3d"
       inkscape:vp_x="0 : 356.02499 : 1"
       inkscape:vp_y="0 : 1000 : 0"
       inkscape:vp_z="518.16803 : 356.02499 : 1"
       inkscape:persp3d-origin="259.08401 : 237.35 : 1"
       id="perspective55" />
    <marker
       id="ArrowEnd"
       viewBox="0 0 10 10"
       refX="0"
       refY="5"
       markerUnits="strokeWidth"
       markerWidth="4"
       markerHeight="3"
       orient="auto">
      <path
         d="M 0 0 L 10 5 L 0 10 z"
         id="path7" />
    </marker>
    <marker
       id="ArrowStart"
       viewBox="0 0 10 10"
       refX="10"
       refY="5"
       markerUnits="strokeWidth"
       markerWidth="4"
       markerHeight="3"
       orient="auto">
      <path
         d="M 10 0 L 0 5 L 10 10 z"
         id="path10" />
    </marker>
    <filter
       inkscape:collect="always"
       style="color-interpolation-filters:sRGB"
       id="filter4551"
       x="-0.1908"
       width="1.3816"
       y="-0.95399998"
       height="2.908">
      <feGaussianBlur
         inkscape:collect="always"
         stdDeviation="5.3582656"
         id="feGaussianBlur4553" />
    </filter>
    <filter
       inkscape:collect="always"
       style="color-interpolation-filters:sRGB"
       id="filter4631"
       x="-0.11088"
       width="1.22176"
       y="-0.55439999"
       height="2.1088">
      <feGaussianBlur
         inkscape:collect="always"
         stdDeviation="3.11386"
         id="feGaussianBlur4633" />
    </filter>
    <filter
       inkscape:collect="always"
       style="color-interpolation-filters:sRGB"
       id="filter4877"
       x="-0.05616"
       width="1.11232"
       y="-0.28079999"
       height="1.5616">
      <feGaussianBlur
         inkscape:collect="always"
         stdDeviation="1.5771499"
         id="feGaussianBlur4879" />
    </filter>
  </defs>
  <ellipse
     inkscape:export-ydpi="6.7745895"
     inkscape:export-xdpi="6.7745895"
     style="opacity:0.85700001;fill:#c0c0c0;fill-opacity:1;stroke:none;stroke-width:2;stroke-miterlimit:4;stroke-dasharray:none;stroke-dashoffset:0;stroke-opacity:1;filter:url(#filter4877)"
     id="ellipse4895"
     cx="341.3627"
     cy="1011.6936"
     rx="33.699783"
     ry="6.7399569" />
  <path
     inkscape:export-ydpi="6.7745895"
     inkscape:export-xdpi="6.7745895"
     id="path4897"
     d="m 341.36169,869.74473 a 54.876034,54.876034 0 0 0 -54.875,54.87696 54.876034,54.876034 0 0 0 35.41016,51.23828 l 9.40625,16.29492 10.05859,17.42191 10.06055,-17.42191 9.37305,-16.23633 a 54.876034,54.876034 0 0 0 35.44336,-51.29687 54.876034,54.876034 0 0 0 -54.87696,-54.87696 z"
     style="opacity:1;fill:#ffffff;fill-opacity:1;stroke:#a4a470;stroke-width:6;stroke-miterlimit:4;stroke-dasharray:none;stroke-dashoffset:0;stroke-opacity:1"
     inkscape:connector-curvature="0" />
  <ellipse
     ry="6.7399569"
     rx="33.699783"
     cy="584.87872"
     cx="109.64754"
     id="ellipse4571"
     style="opacity:0.42900002;fill:#c0c0c0;fill-opacity:1;stroke:none;stroke-width:2;stroke-miterlimit:4;stroke-dasharray:none;stroke-dashoffset:0;stroke-opacity:1;filter:url(#filter4631)"
     inkscape:export-xdpi="6.7745895"
     inkscape:export-ydpi="6.7745895" />
  <path
     inkscape:connector-curvature="0"
     style="opacity:0.72399998;fill:#ffffff;fill-opacity:1;stroke:#cfcfcf;stroke-width:6;stroke-miterlimit:4;stroke-dasharray:none;stroke-dashoffset:0;stroke-opacity:1"
     d="m 109.64655,442.92981 a 54.876034,54.876034 0 0 0 -54.875,54.87696 54.876034,54.876034 0 0 0 35.41016,51.23828 l 9.40625,16.29492 10.05859,17.42187 10.06055,-17.42187 9.37305,-16.23633 a 54.876034,54.876034 0 0 0 35.44336,-51.29687 54.876034,54.876034 0 0 0 -54.87696,-54.87696 z"
     id="path4573"
     inkscape:export-xdpi="6.7745895"
     inkscape:export-ydpi="6.7745895" />
  <path
     style="opacity:0.72399998;fill:#ffbc90;fill-opacity:1;stroke:#ff5555;stroke-width:2;stroke-miterlimit:4;stroke-dasharray:none;stroke-dashoffset:0;stroke-opacity:1"
     d="m 445.70978,267.73017 a 54.876034,54.876034 0 0 1 -54.87604,54.87603 54.876034,54.876034 0 0 1 -54.87603,-54.87603 54.876034,54.876034 0 0 1 54.87603,-54.87603 54.876034,54.876034 0 0 1 54.87604,54.87603 z"
     id="path4344"
     inkscape:connector-curvature="0" />
  <circle
     r="54.876034"
     cy="85.702347"
     cx="393.51062"
     id="circle4346"
     style="opacity:0.72399998;fill:#ffbc90;fill-opacity:1;stroke:#ff5555;stroke-width:2;stroke-miterlimit:4;stroke-dasharray:none;stroke-dashoffset:0;stroke-opacity:1" />
  <path
     sodipodi:type="star"
     style="opacity:0.72399998;fill:#ffbc90;fill-opacity:1;stroke:#ff5555;stroke-width:2;stroke-miterlimit:4;stroke-dasharray:none;stroke-dashoffset:0;stroke-opacity:1"
     id="path4351"
     sodipodi:sides="3"
     sodipodi:cx="390.83376"
     sodipodi:cy="329.45615"
     sodipodi:r1="23.229794"
     sodipodi:r2="11.614897"
     sodipodi:arg1="1.5707963"
     sodipodi:arg2="2.6179939"
     inkscape:flatsided="false"
     inkscape:rounded="0"
     inkscape:randomized="0"
     d="m 390.83377,352.68594 -10.0588,-17.42235 -10.05879,-17.42234 20.11759,0 20.11759,0 -10.05879,17.42234 z"
     inkscape:transform-center-y="5.8074485" />
  <path
     style="opacity:0.72399998;fill:#ffbc90;fill-opacity:1;stroke:#ff5555;stroke-width:2;stroke-miterlimit:4;stroke-dasharray:none;stroke-dashoffset:0;stroke-opacity:1"
     d="m 244.28236,212.85416 a 54.876034,54.876034 0 0 0 -54.875,54.87696 54.876034,54.876034 0 0 0 35.41016,51.23828 l 9.40625,16.29492 10.05859,17.42187 10.06055,-17.42187 9.37305,-16.23633 a 54.876034,54.876034 0 0 0 35.44336,-51.29687 54.876034,54.876034 0 0 0 -54.87696,-54.87696 z"
     id="path4353"
     inkscape:connector-curvature="0" />
  <ellipse
     style="opacity:0.33200001;fill:#000000;fill-opacity:1;stroke:none;stroke-width:2;stroke-miterlimit:4;stroke-dasharray:none;stroke-dashoffset:0;stroke-opacity:1;filter:url(#filter4551)"
     id="path4381"
     cx="109.64754"
     cy="354.80304"
     rx="33.699783"
     ry="6.7399569" />
  <path
     id="path4358"
     d="m 109.64655,212.85416 a 54.876034,54.876034 0 0 0 -54.875,54.87696 54.876034,54.876034 0 0 0 35.41016,51.23828 l 9.40625,16.29492 10.05859,17.42187 10.06055,-17.42187 9.37305,-16.23633 a 54.876034,54.876034 0 0 0 35.44336,-51.29687 54.876034,54.876034 0 0 0 -54.87696,-54.87696 z"
     style="opacity:0.72399998;fill:#ffffff;fill-opacity:1;stroke:#cfcfcf;stroke-width:2;stroke-miterlimit:4;stroke-dasharray:none;stroke-dashoffset:0;stroke-opacity:1"
     inkscape:connector-curvature="0" />
  <g
     id="g4555"
     transform="matrix(0.6678627,0,0,0.6678627,69.50401,449.01857)"
     inkscape:export-xdpi="6.7745895"
     inkscape:export-ydpi="6.7745895">
    <path
       id="path4557"
       d="m 58.1484,127.851 c 0,0 -12.355,-7.133 -12.355,-7.133 0,0 0,-14.039 0,-14.039 0.437,-0.179 0.867,-0.383 1.285,-0.625 6.785,-3.945 7.496,-15.394 1.582,-25.578 C 42.7461,70.293 32.4453,65.234 25.6602,69.175 c -6.793,3.942 -7.5,15.395 -1.586,25.578 0.8711,1.5 1.8399,2.883 2.8711,4.145 0,0 0,10.945 0,10.945 0,0 -14.3789,-8.3 -14.3789,-8.3 0,0 0,-52.672 0,-52.672 0,0 -5.2656,-3.039 -5.2656,-3.039 -4.4961,8.406 -7.085899,17.988 -7.085899,28.187 0,32.422 25.761699,58.809 57.933499,59.848 0,0 0,-6.016 0,-6.016 z"
       style="fill:#209466;fill-rule:evenodd;stroke:none"
       inkscape:connector-curvature="0" />
    <path
       id="path4559"
       d="m 112.922,45.847 c 0,0 -5.274,3.051 -5.274,3.051 0,0 0,16.66 0,16.66 0,0 -9.9136,5.621 -9.9136,5.621 -0.719,-0.843 -1.559,-1.562 -2.531,-2.129 -6.789,-3.941 -17.09,1.118 -23.004,11.297 -5.914,10.188 -5.207,21.637 1.582,25.582 6.789,3.942 17.086,-1.117 23,-11.301 1.281,-2.199 2.246,-4.457 2.91,-6.691 0,0 7.9566,-4.605 7.9566,-4.605 0,0 0,18.211 0,18.211 0,0 -45.4996,26.265 -45.4996,26.265 0,0 0,6.059 0,6.059 C 94.2854,132.789 120,106.414 120,74.019 120,63.824 117.418,54.25 112.922,45.847 Z"
       style="fill:#163b64;fill-rule:evenodd;stroke:none"
       inkscape:connector-curvature="0" />
    <path
       id="path4561"
       d="m 14.6406,45.449 c 0,0 14.1876,-8.188 14.1876,-8.188 0,0 9.0937,5.266 9.0937,5.266 -0.3242,0.984 -0.5,2.012 -0.5,3.062 0,7.852 9.5465,14.215 21.3245,14.215 11.777,0 21.32,-6.363 21.32,-14.215 0,-7.851 -9.543,-14.214 -21.32,-14.214 -2.629,0 -5.141,0.32 -7.465,0.898 0,0 -6.965,-3.953 -6.965,-3.953 0,0 15.793,-9.117 15.793,-9.117 0,0 45.4876,26.257 45.4876,26.257 1.969,-1.132 3.762,-2.171 5.325,-3.074 C 100.347,25.433 81.5664,14.128 60.1094,14.128 c -21.4492,0 -40.2266,11.297 -50.8047,28.243 1.6094,0.925 3.3945,1.957 5.3359,3.078 z"
       style="fill:#c42028;fill-rule:evenodd;stroke:none"
       inkscape:connector-curvature="0" />
  </g>
  <g
     id="g4563"
     transform="matrix(0.66783538,0,0,0.66783538,152.29247,627.40075)"
     inkscape:export-xdpi="6.7745895"
     inkscape:export-ydpi="6.7745895">
    <path
       id="path4565"
       d="m 281.148,499.851 c 0,0 -12.355,-7.133 -12.355,-7.133 0,0 0,-14.039 0,-14.039 0.441,-0.179 0.867,-0.383 1.285,-0.625 6.785,-3.945 7.5,-15.394 1.582,-25.578 -5.914,-10.183 -16.211,-15.242 -23,-11.301 -6.793,3.942 -7.5,15.395 -1.586,25.578 0.871,1.5 1.84,2.883 2.871,4.145 0,0 0,10.945 0,10.945 0,0 -14.379,-8.3 -14.379,-8.3 0,0 0,-52.672 0,-52.672 0,0 -5.266,-3.039 -5.266,-3.039 -4.496,8.406 -7.086,17.988 -7.086,28.187 0,32.422 25.762,58.809 57.934,59.848 0,0 0,-6.016 0,-6.016 z"
       style="fill:#666670;fill-rule:evenodd;stroke:none"
       inkscape:connector-curvature="0" />
    <path
       id="path4567"
       d="m 335.925,417.847 c 0,0 -5.277,3.051 -5.277,3.051 0,0 0,16.66 0,16.66 0,0 -9.91,5.621 -9.91,5.621 -0.723,-0.843 -1.563,-1.562 -2.535,-2.129 -6.789,-3.941 -17.09,1.118 -23.004,11.297 -5.91,10.188 -5.207,21.637 1.582,25.582 6.789,3.942 17.086,-1.117 23.004,-11.301 1.277,-2.199 2.246,-4.457 2.906,-6.691 0,0 7.957,-4.605 7.957,-4.605 0,0 0,18.211 0,18.211 0,0 -45.5,26.265 -45.5,26.265 0,0 0,6.059 0,6.059 32.137,-1.078 57.856,-27.453 57.856,-59.848 0,-10.195 -2.586,-19.769 -7.079,-28.172 z"
       style="fill:#000012;fill-rule:evenodd;stroke:none"
       inkscape:connector-curvature="0" />
    <path
       id="path4569"
       d="m 237.64,417.449 c 0,0 14.188,-8.188 14.188,-8.188 0,0 9.097,5.266 9.097,5.266 -0.328,0.984 -0.5,2.012 -0.5,3.062 0,7.852 9.543,14.215 21.321,14.215 11.777,0 21.324,-6.363 21.324,-14.215 0,-7.851 -9.547,-14.214 -21.324,-14.214 -2.625,0 -5.141,0.32 -7.465,0.898 0,0 -6.965,-3.953 -6.965,-3.953 0,0 15.797,-9.117 15.797,-9.117 0,0 45.484,26.257 45.484,26.257 1.969,-1.132 3.762,-2.171 5.325,-3.074 -10.575,-16.953 -29.352,-28.258 -50.809,-28.258 -21.453,0 -40.231,11.297 -50.809,28.243 1.61,0.925 3.395,1.957 5.336,3.078 z"
       style="fill:#9999a0;fill-rule:evenodd;stroke:none"
       inkscape:connector-curvature="0" />
  </g>
  <rect
     style="opacity:0.33200001;fill:none;fill-opacity:1;stroke:none;stroke-width:1.61166072;stroke-miterlimit:4;stroke-dasharray:none;stroke-dashoffset:0;stroke-opacity:1"
     id="rect4595"
     width="159.41925"
     height="159.41925"
     x="29.937881"
     y="437.63611"
     inkscape:export-xdpi="6.7745895"
     inkscape:export-ydpi="6.7745895" />
  <ellipse
     inkscape:export-ydpi="19.326185"
     inkscape:export-xdpi="19.326185"
     style="opacity:0.42900002;fill:#c0c0c0;fill-opacity:1;stroke:none;stroke-width:2;stroke-miterlimit:4;stroke-dasharray:none;stroke-dashoffset:0;stroke-opacity:1"
     id="ellipse4609"
     cx="109.64754"
     cy="770.14154"
     rx="33.699783"
     ry="6.7399569" />
  <path
     inkscape:export-ydpi="19.326185"
     inkscape:export-xdpi="19.326185"
     id="path4611"
     d="m 109.64655,628.19262 a 54.876034,54.876034 0 0 0 -54.875,54.87696 54.876034,54.876034 0 0 0 35.41016,51.23828 l 9.40625,16.29492 10.05859,17.42187 10.06055,-17.42187 9.37305,-16.23633 a 54.876034,54.876034 0 0 0 35.44336,-51.29687 54.876034,54.876034 0 0 0 -54.87696,-54.87696 z"
     style="opacity:0.72399998;fill:#ffffff;fill-opacity:1;stroke:#cfcfcf;stroke-width:6;stroke-miterlimit:4;stroke-dasharray:none;stroke-dashoffset:0;stroke-opacity:1"
     inkscape:connector-curvature="0" />
  <g
     inkscape:export-ydpi="19.326185"
     inkscape:export-xdpi="19.326185"
     transform="matrix(0.6678627,0,0,0.6678627,69.50401,634.28138)"
     id="g4613">
    <path
       inkscape:connector-curvature="0"
       style="fill:#209466;fill-rule:evenodd;stroke:none"
       d="m 58.1484,127.851 c 0,0 -12.355,-7.133 -12.355,-7.133 0,0 0,-14.039 0,-14.039 0.437,-0.179 0.867,-0.383 1.285,-0.625 6.785,-3.945 7.496,-15.394 1.582,-25.578 C 42.7461,70.293 32.4453,65.234 25.6602,69.175 c -6.793,3.942 -7.5,15.395 -1.586,25.578 0.8711,1.5 1.8399,2.883 2.8711,4.145 0,0 0,10.945 0,10.945 0,0 -14.3789,-8.3 -14.3789,-8.3 0,0 0,-52.672 0,-52.672 0,0 -5.2656,-3.039 -5.2656,-3.039 -4.4961,8.406 -7.085899,17.988 -7.085899,28.187 0,32.422 25.761699,58.809 57.933499,59.848 0,0 0,-6.016 0,-6.016 z"
       id="path4615" />
    <path
       inkscape:connector-curvature="0"
       style="fill:#163b64;fill-rule:evenodd;stroke:none"
       d="m 112.922,45.847 c 0,0 -5.274,3.051 -5.274,3.051 0,0 0,16.66 0,16.66 0,0 -9.9136,5.621 -9.9136,5.621 -0.719,-0.843 -1.559,-1.562 -2.531,-2.129 -6.789,-3.941 -17.09,1.118 -23.004,11.297 -5.914,10.188 -5.207,21.637 1.582,25.582 6.789,3.942 17.086,-1.117 23,-11.301 1.281,-2.199 2.246,-4.457 2.91,-6.691 0,0 7.9566,-4.605 7.9566,-4.605 0,0 0,18.211 0,18.211 0,0 -45.4996,26.265 -45.4996,26.265 0,0 0,6.059 0,6.059 C 94.2854,132.789 120,106.414 120,74.019 120,63.824 117.418,54.25 112.922,45.847 Z"
       id="path4617" />
    <path
       inkscape:connector-curvature="0"
       style="fill:#c42028;fill-rule:evenodd;stroke:none"
       d="m 14.6406,45.449 c 0,0 14.1876,-8.188 14.1876,-8.188 0,0 9.0937,5.266 9.0937,5.266 -0.3242,0.984 -0.5,2.012 -0.5,3.062 0,7.852 9.5465,14.215 21.3245,14.215 11.777,0 21.32,-6.363 21.32,-14.215 0,-7.851 -9.543,-14.214 -21.32,-14.214 -2.629,0 -5.141,0.32 -7.465,0.898 0,0 -6.965,-3.953 -6.965,-3.953 0,0 15.793,-9.117 15.793,-9.117 0,0 45.4876,26.257 45.4876,26.257 1.969,-1.132 3.762,-2.171 5.325,-3.074 C 100.347,25.433 81.5664,14.128 60.1094,14.128 c -21.4492,0 -40.2266,11.297 -50.8047,28.243 1.6094,0.925 3.3945,1.957 5.3359,3.078 z"
       id="path4619" />
  </g>
  <rect
     inkscape:export-ydpi="19.326185"
     inkscape:export-xdpi="19.326185"
     y="622.89893"
     x="29.937881"
     height="159.41925"
     width="159.41925"
     id="rect4621"
     style="opacity:0.33200001;fill:none;fill-opacity:1;stroke:#cfcfcf;stroke-width:1.61166072;stroke-miterlimit:4;stroke-dasharray:none;stroke-dashoffset:0;stroke-opacity:1" />
  <ellipse
     inkscape:export-ydpi="39.51844"
     inkscape:export-xdpi="39.51844"
     style="opacity:0.85700001;fill:#c0c0c0;fill-opacity:1;stroke:none;stroke-width:2;stroke-miterlimit:4;stroke-dasharray:none;stroke-dashoffset:0;stroke-opacity:1;filter:url(#filter4877)"
     id="ellipse4663"
     cx="341.3627"
     cy="584.87872"
     rx="33.699783"
     ry="6.7399569" />
  <path
     inkscape:export-ydpi="39.51844"
     inkscape:export-xdpi="39.51844"
     id="path4665"
     d="m 341.36169,442.92981 a 54.876034,54.876034 0 0 0 -54.875,54.87696 54.876034,54.876034 0 0 0 35.41016,51.23828 l 9.40625,16.29492 10.05859,17.42187 10.06055,-17.42187 9.37305,-16.23633 a 54.876034,54.876034 0 0 0 35.44336,-51.29687 54.876034,54.876034 0 0 0 -54.87696,-54.87696 z"
     style="opacity:1;fill:#ffffff;fill-opacity:1;stroke:#ff6b34;stroke-width:6;stroke-miterlimit:4;stroke-dasharray:none;stroke-dashoffset:0;stroke-opacity:1"
     inkscape:connector-curvature="0" />
  <g
     inkscape:export-ydpi="39.51844"
     inkscape:export-xdpi="39.51844"
     transform="matrix(0.6678627,0,0,0.6678627,301.21915,449.01857)"
     id="g4667">
    <path
       inkscape:connector-curvature="0"
       style="fill:#209466;fill-rule:evenodd;stroke:none"
       d="m 58.1484,127.851 c 0,0 -12.355,-7.133 -12.355,-7.133 0,0 0,-14.039 0,-14.039 0.437,-0.179 0.867,-0.383 1.285,-0.625 6.785,-3.945 7.496,-15.394 1.582,-25.578 C 42.7461,70.293 32.4453,65.234 25.6602,69.175 c -6.793,3.942 -7.5,15.395 -1.586,25.578 0.8711,1.5 1.8399,2.883 2.8711,4.145 0,0 0,10.945 0,10.945 0,0 -14.3789,-8.3 -14.3789,-8.3 0,0 0,-52.672 0,-52.672 0,0 -5.2656,-3.039 -5.2656,-3.039 -4.4961,8.406 -7.085899,17.988 -7.085899,28.187 0,32.422 25.761699,58.809 57.933499,59.848 0,0 0,-6.016 0,-6.016 z"
       id="path4669" />
    <path
       inkscape:connector-curvature="0"
       style="fill:#163b64;fill-rule:evenodd;stroke:none"
       d="m 112.922,45.847 c 0,0 -5.274,3.051 -5.274,3.051 0,0 0,16.66 0,16.66 0,0 -9.9136,5.621 -9.9136,5.621 -0.719,-0.843 -1.559,-1.562 -2.531,-2.129 -6.789,-3.941 -17.09,1.118 -23.004,11.297 -5.914,10.188 -5.207,21.637 1.582,25.582 6.789,3.942 17.086,-1.117 23,-11.301 1.281,-2.199 2.246,-4.457 2.91,-6.691 0,0 7.9566,-4.605 7.9566,-4.605 0,0 0,18.211 0,18.211 0,0 -45.4996,26.265 -45.4996,26.265 0,0 0,6.059 0,6.059 C 94.2854,132.789 120,106.414 120,74.019 120,63.824 117.418,54.25 112.922,45.847 Z"
       id="path4671" />
    <path
       inkscape:connector-curvature="0"
       style="fill:#c42028;fill-rule:evenodd;stroke:none"
       d="m 14.6406,45.449 c 0,0 14.1876,-8.188 14.1876,-8.188 0,0 9.0937,5.266 9.0937,5.266 -0.3242,0.984 -0.5,2.012 -0.5,3.062 0,7.852 9.5465,14.215 21.3245,14.215 11.777,0 21.32,-6.363 21.32,-14.215 0,-7.851 -9.543,-14.214 -21.32,-14.214 -2.629,0 -5.141,0.32 -7.465,0.898 0,0 -6.965,-3.953 -6.965,-3.953 0,0 15.793,-9.117 15.793,-9.117 0,0 45.4876,26.257 45.4876,26.257 1.969,-1.132 3.762,-2.171 5.325,-3.074 C 100.347,25.433 81.5664,14.128 60.1094,14.128 c -21.4492,0 -40.2266,11.297 -50.8047,28.243 1.6094,0.925 3.3945,1.957 5.3359,3.078 z"
       id="path4673" />
  </g>
  <rect
     inkscape:export-ydpi="39.51844"
     inkscape:export-xdpi="39.51844"
     y="437.63611"
     x="261.65305"
     height="159.41925"
     width="159.41925"
     id="rect4675"
     style="opacity:0.33200001;fill:none;fill-opacity:1;stroke:none;stroke-width:1.61166072;stroke-miterlimit:4;stroke-dasharray:none;stroke-dashoffset:0;stroke-opacity:1" />
  <ellipse
     ry="6.7399569"
     rx="33.699783"
     cy="803.47791"
     cx="341.3627"
     id="ellipse4881"
     style="opacity:0.85700001;fill:#c0c0c0;fill-opacity:1;stroke:none;stroke-width:2;stroke-miterlimit:4;stroke-dasharray:none;stroke-dashoffset:0;stroke-opacity:1;filter:url(#filter4877)"
     inkscape:export-xdpi="39.51844"
     inkscape:export-ydpi="39.51844" />
  <path
     inkscape:connector-curvature="0"
     style="opacity:1;fill:#ffffff;fill-opacity:1;stroke:#e2e232;stroke-width:6;stroke-miterlimit:4;stroke-dasharray:none;stroke-dashoffset:0;stroke-opacity:1"
     d="m 341.36169,661.529 a 54.876034,54.876034 0 0 0 -54.875,54.87696 54.876034,54.876034 0 0 0 35.41016,51.23828 l 9.40625,16.29492 10.05859,17.42187 10.06055,-17.42187 9.37305,-16.23633 A 54.876034,54.876034 0 0 0 396.23865,716.40596 54.876034,54.876034 0 0 0 341.36169,661.529 Z"
     id="path4883"
     inkscape:export-xdpi="39.51844"
     inkscape:export-ydpi="39.51844" />
  <g
     id="g4885"
     transform="matrix(0.6678627,0,0,0.6678627,301.21915,667.61776)"
     inkscape:export-xdpi="39.51844"
     inkscape:export-ydpi="39.51844">
    <path
       id="path4887"
       d="m 58.1484,127.851 c 0,0 -12.355,-7.133 -12.355,-7.133 0,0 0,-14.039 0,-14.039 0.437,-0.179 0.867,-0.383 1.285,-0.625 6.785,-3.945 7.496,-15.394 1.582,-25.578 C 42.7461,70.293 32.4453,65.234 25.6602,69.175 c -6.793,3.942 -7.5,15.395 -1.586,25.578 0.8711,1.5 1.8399,2.883 2.8711,4.145 0,0 0,10.945 0,10.945 0,0 -14.3789,-8.3 -14.3789,-8.3 0,0 0,-52.672 0,-52.672 0,0 -5.2656,-3.039 -5.2656,-3.039 -4.4961,8.406 -7.085899,17.988 -7.085899,28.187 0,32.422 25.761699,58.809 57.933499,59.848 0,0 0,-6.016 0,-6.016 z"
       style="fill:#209466;fill-rule:evenodd;stroke:none"
       inkscape:connector-curvature="0" />
    <path
       id="path4889"
       d="m 112.922,45.847 c 0,0 -5.274,3.051 -5.274,3.051 0,0 0,16.66 0,16.66 0,0 -9.9136,5.621 -9.9136,5.621 -0.719,-0.843 -1.559,-1.562 -2.531,-2.129 -6.789,-3.941 -17.09,1.118 -23.004,11.297 -5.914,10.188 -5.207,21.637 1.582,25.582 6.789,3.942 17.086,-1.117 23,-11.301 1.281,-2.199 2.246,-4.457 2.91,-6.691 0,0 7.9566,-4.605 7.9566,-4.605 0,0 0,18.211 0,18.211 0,0 -45.4996,26.265 -45.4996,26.265 0,0 0,6.059 0,6.059 C 94.2854,132.789 120,106.414 120,74.019 120,63.824 117.418,54.25 112.922,45.847 Z"
       style="fill:#163b64;fill-rule:evenodd;stroke:none"
       inkscape:connector-curvature="0" />
    <path
       id="path4891"
       d="m 14.6406,45.449 c 0,0 14.1876,-8.188 14.1876,-8.188 0,0 9.0937,5.266 9.0937,5.266 -0.3242,0.984 -0.5,2.012 -0.5,3.062 0,7.852 9.5465,14.215 21.3245,14.215 11.777,0 21.32,-6.363 21.32,-14.215 0,-7.851 -9.543,-14.214 -21.32,-14.214 -2.629,0 -5.141,0.32 -7.465,0.898 0,0 -6.965,-3.953 -6.965,-3.953 0,0 15.793,-9.117 15.793,-9.117 0,0 45.4876,26.257 45.4876,26.257 1.969,-1.132 3.762,-2.171 5.325,-3.074 C 100.347,25.433 81.5664,14.128 60.1094,14.128 c -21.4492,0 -40.2266,11.297 -50.8047,28.243 1.6094,0.925 3.3945,1.957 5.3359,3.078 z"
       style="fill:#c42028;fill-rule:evenodd;stroke:none"
       inkscape:connector-curvature="0" />
  </g>
  <rect
     style="opacity:0.33200001;fill:none;fill-opacity:1;stroke:none;stroke-width:1.61166072;stroke-miterlimit:4;stroke-dasharray:none;stroke-dashoffset:0;stroke-opacity:1"
     id="rect4893"
     width="159.41925"
     height="159.41925"
     x="261.65305"
     y="656.23535"
     inkscape:export-xdpi="39.51844"
     inkscape:export-ydpi="39.51844" />
  <rect
     inkscape:export-ydpi="6.7745895"
     inkscape:export-xdpi="6.7745895"
     y="864.45105"
     x="261.65305"
     height="159.41925"
     width="159.41925"
     id="rect4907"
     style="opacity:0.33200001;fill:none;fill-opacity:1;stroke:none;stroke-width:1.61166072;stroke-miterlimit:4;stroke-dasharray:none;stroke-dashoffset:0;stroke-opacity:1" />
</svg>
