<?xml version="1.0" encoding="utf-8"?>
<!-- Generator: Adobe Illustrator 16.0.0, SVG Export Plug-In . SVG Version: 6.00 Build 0)  -->
<!DOCTYPE svg PUBLIC "-//W3C//DTD SVG 1.1//EN" "http://www.w3.org/Graphics/SVG/1.1/DTD/svg11.dtd">
<svg version="1.1" id="Layer_1" xmlns="http://www.w3.org/2000/svg" xmlns:xlink="http://www.w3.org/1999/xlink" x="0px" y="0px"
	 width="612px" height="792px" viewBox="0 0 612 792" enable-background="new 0 0 612 792" xml:space="preserve">
<circle fill="#FFFFFF" cx="189.581" cy="395.389" r="26.857"/>
<g>
	<path fill="#FFFFFF" d="M222.585,412.626l4.216-0.897v-20.094h-4.814v-6.13h4.814v-3.588c0-3.628,1.046-6.424,3.14-8.388
		s5.034-2.945,8.821-2.945c0.737,0,1.49,0.055,2.258,0.165c0.767,0.109,1.609,0.265,2.526,0.463l-0.748,6.489
		c-0.478-0.079-0.942-0.149-1.39-0.209c-0.449-0.06-0.972-0.089-1.57-0.089c-1.416,0-2.487,0.389-3.215,1.166
		c-0.728,0.777-1.091,1.895-1.091,3.349v3.588h6.429v6.13h-6.429v20.094l4.216,0.897v5.233h-17.164V412.626z"/>
	<path fill="#FFFFFF" d="M264.169,417.859c-0.239-0.539-0.449-1.092-0.628-1.66c-0.18-0.568-0.319-1.141-0.419-1.719
		c-1.036,1.195-2.298,2.162-3.782,2.9c-1.485,0.736-3.185,1.105-5.099,1.105c-3.169,0-5.687-0.861-7.55-2.586
		c-1.865-1.725-2.796-4.071-2.796-7.042c0-3.03,1.215-5.372,3.648-7.027c2.432-1.655,6-2.481,10.705-2.481h4.456v-3.17
		c0-1.555-0.449-2.761-1.346-3.619c-0.897-0.856-2.223-1.286-3.977-1.286c-0.997,0-1.884,0.115-2.661,0.344
		c-0.777,0.229-1.405,0.504-1.884,0.823l-0.568,3.468h-6.579l0.03-7.176c1.595-1.077,3.424-1.984,5.487-2.721
		c2.063-0.737,4.311-1.106,6.743-1.106c4.007,0,7.261,0.982,9.763,2.945c2.501,1.964,3.753,4.759,3.753,8.388v13.366
		c0,0.498,0.004,0.968,0.015,1.406c0.01,0.438,0.045,0.856,0.105,1.256l2.661,0.358v5.233H264.169z M256.604,412.027
		c1.316,0,2.512-0.283,3.588-0.852s1.914-1.281,2.512-2.139v-4.934h-4.456c-1.854,0-3.259,0.434-4.216,1.301
		c-0.957,0.867-1.435,1.909-1.435,3.125c0,1.096,0.354,1.954,1.062,2.572C254.365,411.719,255.348,412.027,256.604,412.027z"/>
	<path fill="#FFFFFF" d="M307.221,402.578c0,4.825-1.076,8.683-3.229,11.572c-2.153,2.891-5.263,4.336-9.33,4.336
		c-1.895,0-3.539-0.393-4.934-1.181c-1.396-0.788-2.572-1.929-3.528-3.424l-0.628,3.978h-7.536v-40.489l-4.635-0.897v-5.263h13.336
		v17.732c0.937-1.295,2.059-2.292,3.364-2.99c1.305-0.698,2.806-1.046,4.5-1.046c4.107,0,7.237,1.55,9.39,4.65
		s3.229,7.232,3.229,12.395V402.578z M298.52,401.951c0-3.15-0.463-5.647-1.391-7.491c-0.927-1.843-2.507-2.766-4.739-2.766
		c-1.356,0-2.502,0.284-3.439,0.853c-0.938,0.568-1.674,1.38-2.213,2.437v13.665c0.539,0.998,1.281,1.755,2.228,2.273
		c0.946,0.519,2.108,0.777,3.483,0.777c2.253,0,3.828-0.793,4.725-2.377c0.897-1.586,1.346-3.832,1.346-6.744V401.951z"/>
	<path fill="#FFFFFF" d="M308.406,376.474v-5.263h13.396v40.518l4.217,0.897v5.233h-17.164v-5.233l4.216-0.897v-34.358
		L308.406,376.474z"/>
	<path fill="#FFFFFF" d="M349.156,417.859c-0.239-0.539-0.449-1.092-0.628-1.66c-0.18-0.568-0.319-1.141-0.419-1.719
		c-1.037,1.195-2.298,2.162-3.783,2.9c-1.484,0.736-3.184,1.105-5.098,1.105c-3.17,0-5.687-0.861-7.551-2.586
		s-2.796-4.071-2.796-7.042c0-3.03,1.216-5.372,3.648-7.027s6-2.481,10.705-2.481h4.456v-3.17c0-1.555-0.449-2.761-1.346-3.619
		c-0.897-0.856-2.224-1.286-3.978-1.286c-0.997,0-1.884,0.115-2.661,0.344c-0.777,0.229-1.406,0.504-1.885,0.823l-0.567,3.468
		h-6.579l0.03-7.176c1.595-1.077,3.424-1.984,5.487-2.721c2.062-0.737,4.311-1.106,6.743-1.106c4.007,0,7.261,0.982,9.763,2.945
		c2.502,1.964,3.753,4.759,3.753,8.388v13.366c0,0.498,0.005,0.968,0.015,1.406c0.01,0.438,0.045,0.856,0.105,1.256l2.661,0.358
		v5.233H349.156z M341.591,412.027c1.315,0,2.512-0.283,3.589-0.852c1.076-0.568,1.913-1.281,2.512-2.139v-4.934h-4.456
		c-1.854,0-3.259,0.434-4.216,1.301s-1.436,1.909-1.436,3.125c0,1.096,0.354,1.954,1.062,2.572
		C339.353,411.719,340.335,412.027,341.591,412.027z"/>
	<path fill="#FFFFFF" d="M391.188,402.578c0,4.825-1.076,8.683-3.229,11.572c-2.153,2.891-5.264,4.336-9.33,4.336
		c-1.895,0-3.539-0.393-4.934-1.181c-1.396-0.788-2.572-1.929-3.529-3.424l-0.627,3.978h-7.536v-40.489l-4.635-0.897v-5.263h13.337
		v17.732c0.937-1.295,2.059-2.292,3.363-2.99c1.306-0.698,2.807-1.046,4.501-1.046c4.106,0,7.236,1.55,9.39,4.65
		c2.152,3.1,3.229,7.232,3.229,12.395V402.578z M382.486,401.951c0-3.15-0.463-5.647-1.391-7.491
		c-0.927-1.843-2.507-2.766-4.739-2.766c-1.356,0-2.502,0.284-3.438,0.853c-0.938,0.568-1.675,1.38-2.213,2.437v13.665
		c0.538,0.998,1.281,1.755,2.228,2.273s2.108,0.777,3.483,0.777c2.253,0,3.828-0.793,4.725-2.377
		c0.897-1.586,1.346-3.832,1.346-6.744V401.951z"/>
	<path fill="#FFFFFF" d="M418.261,396.628h-5.86l-0.928-4.037c-0.598-0.479-1.35-0.877-2.258-1.196
		c-0.907-0.318-1.908-0.479-3.005-0.479c-1.535,0-2.751,0.344-3.647,1.032c-0.897,0.688-1.346,1.55-1.346,2.586
		c0,0.977,0.428,1.79,1.285,2.437c0.857,0.647,2.572,1.222,5.144,1.72c4.007,0.797,6.978,1.969,8.911,3.514s2.9,3.674,2.9,6.384
		c0,2.911-1.251,5.288-3.753,7.132s-5.796,2.766-9.883,2.766c-2.492,0-4.78-0.363-6.862-1.091c-2.084-0.728-3.933-1.769-5.547-3.125
		l-0.09-7.267h6.1l1.196,4.217c0.519,0.438,1.226,0.762,2.124,0.972c0.896,0.21,1.834,0.313,2.811,0.313
		c1.773,0,3.125-0.318,4.051-0.957c0.928-0.637,1.391-1.504,1.391-2.602c0-0.956-0.468-1.783-1.404-2.481
		c-0.938-0.698-2.662-1.315-5.174-1.854c-3.809-0.777-6.684-1.928-8.627-3.453s-2.916-3.604-2.916-6.235
		c0-2.71,1.117-5.048,3.35-7.012s5.412-2.946,9.539-2.946c2.512,0,4.889,0.339,7.132,1.017c2.242,0.678,4.002,1.545,5.277,2.602
		L418.261,396.628z"/>
</g>
<g>
	<path fill="#FFFFFF" d="M429.665,373.718c0,1.334-0.975,2.381-2.525,2.381c-1.479,0-2.453-1.047-2.453-2.381
		c0-1.371,1.011-2.417,2.489-2.417C428.69,371.301,429.629,372.347,429.665,373.718z M424.939,396.19v-17.567h4.473v17.567H424.939z
		"/>
	<path fill="#FFFFFF" d="M449.648,387.244c0,6.457-4.545,9.343-9.018,9.343c-4.979,0-8.802-3.427-8.802-9.054
		c0-5.771,3.787-9.307,9.09-9.307C446.149,378.227,449.648,381.906,449.648,387.244z M436.41,387.425
		c0,3.391,1.659,5.952,4.364,5.952c2.525,0,4.293-2.489,4.293-6.024c0-2.741-1.227-5.88-4.257-5.88
		C437.673,381.473,436.41,384.503,436.41,387.425z"/>
</g>
<g id="gD8ABa.tif">
	<g>
		<path fill-rule="evenodd" clip-rule="evenodd" fill="#1E9666" d="M188.773,419.77c-6.751-0.073-14.903-3.59-19.794-11.251
			c-5.145-8.055-4.75-17.671-0.924-24.618c0.505,0.291,1.011,0.582,1.517,0.873c0.017,0.01,0.031,0.023,0.048,0.034
			c0.188,0.115,0.451,0.188,0.544,0.355c0.095,0.17,0.025,0.434,0.025,0.656c0.001,6.854,0.001,13.708-0.004,20.562
			c0,0.178,0.061,0.265,0.205,0.348c1.254,0.719,2.506,1.443,3.758,2.168c0.593,0.342,1.185,0.683,1.778,1.023
			c0.027,0.016,0.058,0.024,0.115,0.047c0.006-0.086,0.015-0.153,0.015-0.221c0.001-1.356,0.002-2.713-0.003-4.069
			c-0.001-0.081-0.038-0.177-0.089-0.242c-1.186-1.503-2.033-3.175-2.462-5.042c-0.326-1.42-0.393-2.85,0.025-4.266
			c0.369-1.251,1.059-2.267,2.268-2.854c0.91-0.441,1.869-0.498,2.852-0.303c1.218,0.241,2.281,0.809,3.251,1.559
			c1.262,0.976,2.262,2.18,3.05,3.562c0.73,1.28,1.252,2.637,1.478,4.098c0.22,1.422,0.185,2.826-0.384,4.176
			c-0.44,1.044-1.146,1.84-2.198,2.307c-0.055,0.024-0.105,0.127-0.106,0.193c-0.008,0.675-0.005,1.35-0.005,2.024
			c0,1.107,0.003,2.215-0.002,3.322c-0.001,0.153,0.041,0.239,0.185,0.321c1.148,0.654,2.288,1.323,3.432,1.986
			c0.44,0.255,0.883,0.502,1.32,0.762c0.056,0.033,0.117,0.115,0.117,0.176c0.007,0.753,0.004,1.507,0.003,2.261
			C188.787,419.734,188.777,419.752,188.773,419.77z"/>
		<path fill-rule="evenodd" clip-rule="evenodd" fill="#183D63" d="M208.942,399.213c-0.604,0.35-1.179,0.681-1.753,1.013
			c-0.451,0.261-0.904,0.521-1.352,0.787c-0.065,0.038-0.129,0.113-0.151,0.185c-0.545,1.764-1.449,3.326-2.667,4.703
			c-0.913,1.031-1.974,1.879-3.233,2.457c-0.698,0.32-1.424,0.531-2.196,0.586c-1.138,0.082-2.155-0.209-3.029-0.946
			c-0.758-0.641-1.205-1.479-1.46-2.425c-0.244-0.896-0.284-1.811-0.205-2.734c0.131-1.543,0.593-2.987,1.31-4.35
			c0.994-1.886,2.329-3.475,4.159-4.609c0.919-0.569,1.907-0.968,2.995-1.052c1.126-0.087,2.166,0.155,3.054,0.895
			c0.089,0.075,0.18,0.15,0.264,0.231c0.079,0.077,0.15,0.163,0.238,0.26c0.38-0.213,0.759-0.423,1.137-0.638
			c0.844-0.479,1.681-0.971,2.534-1.433c0.266-0.144,0.367-0.296,0.365-0.608c-0.018-2.07-0.008-4.141-0.013-6.211
			c0-0.134,0.036-0.208,0.155-0.275c0.669-0.377,1.332-0.765,1.997-1.148c3.351,5.917,4.378,14.914,0.05,22.973
			c-4.859,9.051-13.819,12.828-20.747,12.904c0-0.064,0-0.128,0-0.191c0-0.701,0.003-1.402-0.003-2.104
			c-0.001-0.119,0.031-0.191,0.135-0.251c1.051-0.603,2.1-1.209,3.149-1.815c1.235-0.712,2.471-1.424,3.706-2.137
			c1.236-0.714,2.473-1.426,3.708-2.141c1.325-0.766,2.649-1.534,3.975-2.299c1.139-0.657,2.28-1.311,3.42-1.966
			c0.017-0.01,0.033-0.021,0.051-0.027c0.375-0.126,0.417-0.4,0.415-0.76c-0.017-2.214-0.009-4.429-0.009-6.644
			C208.942,399.378,208.942,399.312,208.942,399.213z"/>
		<path fill-rule="evenodd" clip-rule="evenodd" fill="#C5242A" d="M183.157,376.756c0.734,0.417,1.456,0.787,2.134,1.225
			c0.46,0.297,0.884,0.355,1.421,0.23c1.008-0.234,2.047-0.261,3.081-0.197c1.45,0.09,2.851,0.396,4.177,1.01
			c1.15,0.532,2.157,1.246,2.911,2.282c0.588,0.807,0.897,1.712,0.841,2.714c-0.052,0.936-0.418,1.761-1,2.488
			c-0.768,0.958-1.755,1.625-2.868,2.119c-1.197,0.532-2.453,0.829-3.758,0.93c-1.909,0.148-3.768-0.066-5.554-0.776
			c-1.008-0.401-1.939-0.942-2.717-1.709c-0.775-0.764-1.333-1.655-1.473-2.764c-0.068-0.539-0.038-1.07,0.12-1.589
			c0.037-0.124,0.018-0.181-0.093-0.245c-1.124-0.647-2.246-1.298-3.365-1.955c-0.143-0.084-0.252-0.075-0.39,0.005
			c-1.239,0.722-2.482,1.438-3.724,2.156c-0.559,0.323-1.118,0.645-1.674,0.972c-0.123,0.072-0.219,0.093-0.355,0.012
			c-0.661-0.394-1.33-0.773-2.018-1.171c1.181-1.921,2.603-3.625,4.257-5.128c3.695-3.358,8.012-5.441,12.957-6.152
			c9.89-1.421,19.197,3.214,24.238,11.284c-0.226,0.133-0.451,0.267-0.678,0.398c-0.429,0.249-0.863,0.491-1.287,0.747
			c-0.156,0.094-0.278,0.094-0.438,0c-1.481-0.865-2.966-1.72-4.452-2.579c-1.756-1.015-3.511-2.031-5.268-3.045
			c-1.407-0.812-2.816-1.619-4.223-2.431c-1.383-0.8-2.765-1.601-4.146-2.406c-0.159-0.093-0.287-0.108-0.461-0.006
			c-1.644,0.961-3.294,1.913-4.944,2.866C184.001,376.276,183.594,376.507,183.157,376.756z"/>
	</g>
</g>
</svg>
