<?xml version="1.0" encoding="UTF-8"?>
<svg width="130px" height="30px" viewBox="0 0 130 30" version="1.1" xmlns="http://www.w3.org/2000/svg" xmlns:xlink="http://www.w3.org/1999/xlink">
    <g id="Output" stroke="none" stroke-width="1" fill="none" fill-rule="evenodd">
        <g id="Same-Same-in-header" transform="translate(-131.000000, -123.000000)">
            <g id="Header---public" transform="translate(111.000000, 98.000000)">
                <g id="Group" transform="translate(20.000000, 25.000000)">
                    <path d="M19.6686659,8.35358344 C19.6686659,6.51634433 17.4363411,5.02812822 14.6814351,5.02812822 C14.0672651,5.02812822 13.4792989,5.10227689 12.9355051,5.23809128 L11.3073679,4.31235645 L15.001123,2.17977098 L25.6269393,8.31663393 C26.4340202,7.85052095 27.1574981,7.43309144 27.7452147,7.0928065 C25.0973705,2.83587431 20.3824109,0 15.001123,0 C9.62881933,0 4.91735365,2.82813488 2.2685112,7.07508072 C2.87694138,7.42734929 3.60116795,7.84552778 4.39577077,8.30390133 L7.68473767,6.40424753 L9.81199724,7.63681302 C9.73588108,7.86799707 9.69495304,8.10692054 9.69495304,8.35358344 C9.69495304,10.1900736 11.9275274,11.6792883 14.6814351,11.6792883 C17.4363411,11.6792883 19.6686659,10.1900736 19.6686659,8.35358344 Z M28.2433388,7.95787424 L26.1193235,9.18469758 L26.1193235,13.0259479 L23.8011496,14.3406511 C23.6324463,14.1436703 23.4355425,13.974901 23.2094401,13.8433308 C21.6212327,12.9205919 19.2124681,14.1047235 17.8281522,16.4862188 C16.4458327,18.8697114 16.6105431,21.5488 18.1987505,22.4720382 C19.7867084,23.3937785 22.1944747,22.2106455 23.5777924,19.8281515 C23.8780145,19.3133551 24.1043665,18.7848274 24.259344,18.2620419 L26.1193235,17.1845145 L26.1193235,21.4451916 L15.5257006,27.5638294 L15.5257006,29.9980027 C23.566063,29.7218801 30,23.1179055 30,15.0059918 C30,12.4574748 29.363619,10.0592524 28.2433388,7.95787424 Z M11.652511,22.6475484 C11.7558293,22.604607 11.8554042,22.5581705 11.9527331,22.5004993 C13.540691,21.5767618 13.7066491,18.8989215 12.3233315,16.5154289 C10.9400138,14.1339336 8.53099966,12.9500516 6.94304182,13.8725409 C5.35508398,14.7940315 5.19012403,17.4741187 6.5734417,19.8576113 C6.77733319,20.2076329 7.00243738,20.5314404 7.24426217,20.8260377 L7.24426217,23.3867881 L3.88192428,21.4451916 L3.88192428,9.16023102 L1.7676419,7.93914983 C0.641621815,10.0447721 0,12.4497354 0,15.0059918 C0,23.134383 6.46338521,29.7483439 14.5274559,30 L14.5274559,27.5922905 L11.652511,25.9323092 L11.652511,22.6475484 Z" id="Fill-1" fill="#333333"></path>
                    <path d="M45.888,14.888 L50.048,14.888 L50.048,16.296 L45.888,16.296 L45.888,21 L44.032,21 L44.032,9.96 L50.816,9.96 L50.624,11.368 L45.888,11.368 L45.888,14.888 Z M58.5991111,18.936 C58.5991111,19.2560016 58.6471106,19.4933326 58.7431111,19.648 C58.8391116,19.8026674 59.0044433,19.917333 59.2391111,19.992 L58.8231111,21.208 C57.9377733,21.1013328 57.3564458,20.7120034 57.0791111,20.04 C56.7697762,20.4240019 56.3831134,20.7146657 55.9191111,20.912 C55.4551088,21.1093343 54.9457805,21.208 54.3911111,21.208 C53.5377735,21.208 52.8604469,20.9680024 52.3591111,20.488 C51.8577753,20.0079976 51.6071111,19.3733373 51.6071111,18.584 C51.6071111,17.6986622 51.9564409,17.0160024 52.6551111,16.536 C53.3537813,16.0559976 54.3431047,15.816 55.6231111,15.816 L56.8231111,15.816 L56.8231111,15.272 C56.8231111,14.738664 56.6631127,14.3493346 56.3431111,14.104 C56.0231095,13.8586654 55.5591141,13.736 54.9511111,13.736 C54.6524429,13.736 54.3057797,13.773333 53.9111111,13.848 C53.5164425,13.922667 53.1164465,14.0293326 52.7111111,14.168 L52.2631111,12.904 C53.2764495,12.5199981 54.2631063,12.328 55.2231111,12.328 C56.3431167,12.328 57.1857749,12.5733309 57.7511111,13.064 C58.3164473,13.5546691 58.5991111,14.2533288 58.5991111,15.16 L58.5991111,18.936 Z M54.9191111,19.896 C55.2924463,19.896 55.6524427,19.800001 55.9991111,19.608 C56.3457795,19.415999 56.6204434,19.149335 56.8231111,18.808 L56.8231111,16.936 L55.8311111,16.936 C55.0204404,16.936 54.4284463,17.0719986 54.0551111,17.344 C53.6817759,17.6160014 53.4951111,18.0079974 53.4951111,18.52 C53.4951111,18.9680022 53.6151099,19.3093322 53.8551111,19.544 C54.0951123,19.7786678 54.4497754,19.896 54.9191111,19.896 Z M62.6382222,13.56 C62.9262236,13.1653314 63.2702202,12.8613344 63.6702222,12.648 C64.0702242,12.4346656 64.4995532,12.328 64.9582222,12.328 C66.0355609,12.328 66.8302196,12.7173294 67.3422222,13.496 C67.8542248,14.2746706 68.1102222,15.3626597 68.1102222,16.76 C68.1102222,18.0826733 67.8142252,19.1546626 67.2222222,19.976 C66.6302192,20.7973374 65.8008942,21.208 64.7342222,21.208 C63.7955508,21.208 63.0595582,20.8613368 62.5262222,20.168 L62.4302222,21 L60.8462222,21 L60.8462222,9.16 L62.6382222,8.952 L62.6382222,13.56 Z M64.3022222,19.848 C64.920892,19.848 65.3928872,19.5946692 65.7182222,19.088 C66.0435572,18.5813308 66.2062222,17.8106718 66.2062222,16.776 C66.2062222,15.709328 66.059557,14.9306691 65.7662222,14.44 C65.4728874,13.9493309 65.0382251,13.704 64.4622222,13.704 C64.0995537,13.704 63.7608904,13.8159989 63.4462222,14.04 C63.131554,14.2640011 62.8622233,14.5573315 62.6382222,14.92 L62.6382222,18.872 C63.064891,19.5226699 63.6195521,19.848 64.3022222,19.848 Z M73.2693333,18.696 C73.2693333,19.4106702 73.6959957,19.768 74.5493333,19.768 C74.9760021,19.768 75.4239976,19.672001 75.8933333,19.48 L76.3413333,20.728 C75.7546637,21.0480016 75.0293376,21.208 74.1653333,21.208 C73.3226624,21.208 72.6640024,20.970669 72.1893333,20.496 C71.7146643,20.021331 71.4773333,19.3680042 71.4773333,18.536 L71.4773333,10.472 L68.9333333,10.472 L68.9333333,9.16 L73.2693333,9.16 L73.2693333,18.696 Z M84.7324444,18.936 C84.7324444,19.2560016 84.7804439,19.4933326 84.8764444,19.648 C84.9724449,19.8026674 85.1377766,19.917333 85.3724444,19.992 L84.9564444,21.208 C84.0711067,21.1013328 83.4897791,20.7120034 83.2124444,20.04 C82.9031095,20.4240019 82.5164467,20.7146657 82.0524444,20.912 C81.5884421,21.1093343 81.0791139,21.208 80.5244444,21.208 C79.6711068,21.208 78.9937803,20.9680024 78.4924444,20.488 C77.9911086,20.0079976 77.7404444,19.3733373 77.7404444,18.584 C77.7404444,17.6986622 78.0897743,17.0160024 78.7884444,16.536 C79.4871146,16.0559976 80.476438,15.816 81.7564444,15.816 L82.9564444,15.816 L82.9564444,15.272 C82.9564444,14.738664 82.796446,14.3493346 82.4764444,14.104 C82.1564428,13.8586654 81.6924475,13.736 81.0844444,13.736 C80.7857763,13.736 80.4391131,13.773333 80.0444444,13.848 C79.6497758,13.922667 79.2497798,14.0293326 78.8444444,14.168 L78.3964444,12.904 C79.4097828,12.5199981 80.3964396,12.328 81.3564444,12.328 C82.47645,12.328 83.3191083,12.5733309 83.8844444,13.064 C84.4497806,13.5546691 84.7324444,14.2533288 84.7324444,15.16 L84.7324444,18.936 Z M81.0524444,19.896 C81.4257796,19.896 81.785776,19.800001 82.1324444,19.608 C82.4791128,19.415999 82.7537767,19.149335 82.9564444,18.808 L82.9564444,16.936 L81.9644444,16.936 C81.1537737,16.936 80.5617796,17.0719986 80.1884444,17.344 C79.8151092,17.6160014 79.6284444,18.0079974 79.6284444,18.52 C79.6284444,18.9680022 79.7484432,19.3093322 79.9884444,19.544 C80.2284456,19.7786678 80.5831087,19.896 81.0524444,19.896 Z M88.7715555,13.56 C89.059557,13.1653314 89.4035535,12.8613344 89.8035555,12.648 C90.2035575,12.4346656 90.6328866,12.328 91.0915555,12.328 C92.1688942,12.328 92.963553,12.7173294 93.4755555,13.496 C93.9875581,14.2746706 94.2435555,15.3626597 94.2435555,16.76 C94.2435555,18.0826733 93.9475585,19.1546626 93.3555555,19.976 C92.7635526,20.7973374 91.9342275,21.208 90.8675555,21.208 C89.9288842,21.208 89.1928915,20.8613368 88.6595555,20.168 L88.5635555,21 L86.9795555,21 L86.9795555,9.16 L88.7715555,8.952 L88.7715555,13.56 Z M90.4355555,19.848 C91.0542253,19.848 91.5262206,19.5946692 91.8515555,19.088 C92.1768905,18.5813308 92.3395555,17.8106718 92.3395555,16.776 C92.3395555,15.709328 92.1928903,14.9306691 91.8995555,14.44 C91.6062207,13.9493309 91.1715584,13.704 90.5955555,13.704 C90.232887,13.704 89.8942238,13.8159989 89.5795555,14.04 C89.2648873,14.2640011 88.9955566,14.5573315 88.7715555,14.92 L88.7715555,18.872 C89.1982243,19.5226699 89.7528854,19.848 90.4355555,19.848 Z M98.7626666,19.848 C99.3280028,19.848 99.7733317,19.7466677 100.098667,19.544 C100.424002,19.3413323 100.586667,19.0640018 100.586667,18.712 C100.586667,18.4666654 100.538667,18.2666674 100.442667,18.112 C100.346666,17.9573326 100.154668,17.813334 99.8666666,17.68 C99.5786652,17.546666 99.1466695,17.4053341 98.5706666,17.256 C97.642662,17.0213322 96.9466689,16.7200018 96.4826666,16.352 C96.0186643,15.9839982 95.7866666,15.4533368 95.7866666,14.76 C95.7866666,14.0239963 96.0906636,13.4346689 96.6986666,12.992 C97.3066697,12.5493311 98.1279948,12.328 99.1626666,12.328 C100.410673,12.328 101.482662,12.6533301 102.378667,13.304 L101.610667,14.44 C100.85333,13.9386642 100.053338,13.688 99.2106666,13.688 C98.1439946,13.688 97.6106666,13.9973302 97.6106666,14.616 C97.6106666,14.8293344 97.6719993,15.0053326 97.7946666,15.144 C97.9173339,15.2826674 98.1279985,15.4133327 98.4266666,15.536 C98.7253348,15.6586673 99.167997,15.7999992 99.7546666,15.96 C100.672005,16.2160013 101.357331,16.5306648 101.810667,16.904 C102.264002,17.2773352 102.490667,17.8373296 102.490667,18.584 C102.490667,19.4480043 102.133337,20.1013311 101.418667,20.544 C100.703996,20.9866689 99.8186719,21.208 98.7626666,21.208 C97.3653263,21.208 96.2080045,20.8133373 95.2906666,20.024 L96.2346666,18.936 C96.5866684,19.2133347 96.9786645,19.4346658 97.4106666,19.6 C97.8426688,19.7653342 98.2933309,19.848 98.7626666,19.848 Z M106.225778,19.656 C106.225778,19.2293312 106.37511,18.8666682 106.673778,18.568 C106.972446,18.2693318 107.335109,18.12 107.761778,18.12 C108.199113,18.12 108.56711,18.2693318 108.865778,18.568 C109.164446,18.8666682 109.313778,19.2293312 109.313778,19.656 C109.313778,20.0933355 109.164446,20.4613318 108.865778,20.76 C108.56711,21.0586682 108.199113,21.208 107.761778,21.208 C107.335109,21.208 106.972446,21.0586682 106.673778,20.76 C106.37511,20.4613318 106.225778,20.0933355 106.225778,19.656 Z M116.488889,8.408 C116.830224,8.408 117.110221,8.51733224 117.328889,8.736 C117.547557,8.95466776 117.656889,9.2239984 117.656889,9.544 C117.656889,9.8640016 117.547557,10.1306656 117.328889,10.344 C117.110221,10.5573344 116.830224,10.664 116.488889,10.664 C116.136887,10.664 115.854223,10.5573344 115.640889,10.344 C115.427554,10.1306656 115.320889,9.8640016 115.320889,9.544 C115.320889,9.21333168 115.430221,8.9413344 115.648889,8.728 C115.867557,8.5146656 116.147554,8.408 116.488889,8.408 Z M117.720889,19.688 L120.024889,19.688 L120.024889,21 L113.416889,21 L113.416889,19.688 L115.928889,19.688 L115.928889,13.864 L113.496889,13.864 L113.496889,12.552 L117.720889,12.552 L117.720889,19.688 Z M125.216,12.328 C126.432006,12.328 127.370663,12.7253294 128.032,13.52 C128.693337,14.3146706 129.024,15.3946598 129.024,16.76 C129.024,18.1253402 128.688003,19.207996 128.016,20.008 C127.343997,20.808004 126.405339,21.208 125.2,21.208 C123.983994,21.208 123.04267,20.8160039 122.376,20.032 C121.70933,19.2479961 121.376,18.1626736 121.376,16.776 C121.376,15.4319933 121.714663,14.3546707 122.392,13.544 C123.069337,12.7333293 124.010661,12.328 125.216,12.328 Z M125.216,13.72 C124.56533,13.72 124.077335,13.9706642 123.752,14.472 C123.426665,14.9733358 123.264,15.7413282 123.264,16.776 C123.264,17.8213386 123.423998,18.5919975 123.744,19.088 C124.064002,19.5840025 124.54933,19.832 125.2,19.832 C125.85067,19.832 126.335998,19.5813358 126.656,19.08 C126.976002,18.5786642 127.136,17.8053386 127.136,16.76 C127.136,15.7253282 126.976002,14.9600025 126.656,14.464 C126.335998,13.9679975 125.856003,13.72 125.216,13.72 Z" id="Fablabs.io" fill="#3C3C3C"></path>
                </g>
            </g>
        </g>
    </g>
</svg>
